<?xml version="1.0" encoding="utf-8"?>
<!-- Generator: Adobe Illustrator 22.0.0, SVG Export Plug-In . SVG Version: 6.00 Build 0)  -->
<svg version="1.1" id="Layer_1" xmlns="http://www.w3.org/2000/svg" xmlns:xlink="http://www.w3.org/1999/xlink" x="0px" y="0px"
	 viewBox="0 0 251.1 300" style="enable-background:new 0 0 251.1 300;" xml:space="preserve">
<style type="text/css">
	.st0{fill:#67BECC;}
	.st1{fill:#FFFFFF;}
	.st2{fill:#99D4DD;}
	.st3{fill:#0193AA;}
</style>
<g id="red">
</g>
<g id="blue">
	<g>
		<g>
			<path class="st0" d="M125.5,286.8c-51.5,0-106.5-5-114.1-15.6c-0.9-1.4-1.2-3.1-0.7-4.7c9.4-24.6,24.3-30.5,37.8-32.8
				c16.3-2.8,41.3-10.2,43.5-15.8c0.7-1.9,0.9-25.7,1.2-34.5v-2.6l1.9,1.7c3.3,2.6,17.2,4.7,31.7,4.7s25.5-2.1,29.5-5.4l1.9-1.7v2.6
				c0,8,0.5,33.1,1.2,35.2c2.1,5.4,26.9,12.8,43.2,15.8c13.5,2.4,28.3,8.3,37.8,32.8c0.7,1.7,0.5,3.3-0.7,4.7
				C232.1,281.8,177,286.8,125.5,286.8z"/>
			<path class="st1" d="M157,182.6c0,5,0.2,33.1,1.2,35.4c2.6,6.9,32.1,14.4,44.2,16.5c12,2.1,27.4,6.9,36.9,32.1
				c4.7,12.5-54.3,18.9-113.6,18.9S7.2,279.2,11.9,266.7c9.4-25.3,24.8-30,36.9-32.1c12-2.1,41.6-9.4,44.2-16.5
				c0.9-2.4,1.2-30.2,1.2-35c3.5,3.1,18.2,5.2,32.6,5.2C139.5,188.3,152,186.6,157,182.6 M159.3,177.4l-4,3.3
				c-3.8,3.1-14.6,5.2-28.8,5.2c-15.8,0-28.3-2.4-30.9-4.5l-3.8-3.1v5c0,8.5-0.5,31.7-0.9,34.3c-1.7,4.5-24.1,11.6-42.5,14.9
				c-13.7,2.4-29.1,8.3-38.7,33.5c-0.7,2.1-0.5,4,0.7,5.9c8.3,12,67.1,16.3,115,16.3s106.8-4.3,115-16.3c1.2-1.9,1.4-3.8,0.7-5.9
				c-9.7-25.3-24.8-31.2-38.7-33.5c-18.2-3.3-40.9-10.6-42.5-14.9c-0.7-2.4-0.9-26.9-0.9-34.7L159.3,177.4L159.3,177.4z"/>
		</g>
		<g>
			<path class="st2" d="M123.9,209.5c-16.1-0.7-28.1-13.7-31.4-17.7l-0.2-0.2c-12.3-14.4-14.9-27.9-15.4-31.7
				c-2.6-0.5-8.7-2.8-12.3-18.2c-1.7-7.6-1.7-12.3,0.2-14.6c0.7-0.9,1.9-1.7,3.3-1.7c0.2,0,0.2,0,0.5,0C58.5,67.6,104,51,104.5,50.8
				c5.9-1.7,11.3-2.6,16.5-2.6c1.4,0,2.8,0,4,0.2c1.4-0.2,2.6-0.2,4-0.2c5.2,0,10.6,0.9,16.5,2.6c0.5,0.2,46.1,16.8,35.9,74.6
				c0.2,0,0.2,0,0.5,0c1.4,0,2.6,0.5,3.3,1.7c1.9,2.4,1.9,7.1,0.2,14.6c-3.5,15.4-9.7,18-12.3,18.2c-0.5,3.8-2.8,16.5-14.4,30.5
				l-0.5,0.9l0,0c-10.9,12-22,18.2-33.3,18.2C124.8,209.5,124.4,209.5,123.9,209.5z"/>
			<path class="st1" d="M121.3,49.4c1.4,0,2.8,0,4,0.2c1.2-0.2,2.6-0.2,4-0.2c4.5,0,9.7,0.7,16.1,2.6c0,0,46.1,16.1,34.7,75.1
				c0,0,0.9-0.5,1.9-0.5c2.4,0,5.4,2.1,2.4,14.6c-3.8,16.3-10.4,17.5-11.8,17.5c-0.2,0-0.2,0-0.2,0s-0.9,14.9-14.2,30.9l0,0
				c-10.9,12.5-22,18.7-33.1,18.7c-0.5,0-0.7,0-1.2,0c-15.6-0.7-27.4-13.7-30.5-17.2l0,0c-14.4-16.8-15.4-32.4-15.4-32.4s0,0-0.2,0
				c-1.4,0-8-0.9-11.8-17.5c-3.1-12.8,0.2-14.6,2.4-14.6c0.9,0,1.9,0.5,1.9,0.5C59.2,68,105.2,52,105.2,52
				C111.6,50.1,116.8,49.4,121.3,49.4 M121.3,47v2.4V47c-5.2,0-10.9,0.9-16.8,2.6c-0.5,0.2-12.3,4.5-22.7,16.1
				c-9.2,10.4-19.1,28.8-14.2,58.6c-1.4,0.2-2.4,0.9-3.3,1.9c-2.1,2.6-2.4,7.6-0.5,15.6c3.3,14.4,9,18.2,12.3,18.9
				c0.7,5,3.8,17.7,15.4,31.4l0.2,0.2c3.3,4,15.6,17.5,32.1,18.2c0.5,0,0.7,0,1.2,0c11.3,0,22.4-5.9,33.3-17.7l0,0l1.7-1.9
				c10.9-13.2,13.7-25.5,14.4-30.2c3.5-0.9,9-4.5,12.3-18.9c1.9-8,1.7-13-0.5-15.6c-0.9-0.9-1.9-1.7-3.3-1.9
				c4.7-29.5-5-48.2-14.2-58.6c-10.4-11.8-22.2-15.8-22.7-16.1c-5.9-1.9-11.6-2.8-16.8-2.8c-1.4,0-2.8,0-4,0.2
				C124.1,47,122.7,47,121.3,47L121.3,47z"/>
		</g>
		<g>
			<path class="st3" d="M177.3,133.5c0-2.1,0-4.5,0-6.6c0-1.2,0-2.6,0-3.8c0-1.9,0-3.5-0.2-5c-0.5-5-1.2-9.7-2.4-14.4
				c-1.2-5-2.8-9.4-4.7-13.7c-1.9,1.4-4,2.4-6.4,2.6c-2.8,0.5-5.7,0.7-8.7,0.7c-19.6,0-41.3-9.7-52.4-15.4l0,0
				c-1.4-0.5-2.8-0.7-4.3-1.2c-0.2,0-0.7,0-0.9,0c-1.7,0-3.1,0.2-4.5,0.9c-1.7,0.7-3.5,1.2-5.2,1.2l0,0c-2.1,3.1-4,6.6-5.9,10.4
				c-1.4,3.5-2.8,7.3-4,11.3c-0.7,2.4-1.4,5-1.9,7.6c-0.9,4.5-1.2,9-1.7,13.5c-0.2,3.5-0.5,7.3-1.2,11.1l-0.9,5l-1.4-5
				c-0.7-2.4-1.7-4.7-2.4-6.9c-1.2-3.1-2.4-6.4-3.1-9.4c-1.4-6.1-2.6-11.8-3.1-17.5c-1.4-12.8-0.5-23.4,2.6-32.6
				c0.5-1.4,1.2-3.1,1.9-4.5c-0.2-2.6,0-5.4,0.9-8c4.7-13.9,17.2-22,17.7-22.4l0.7,0.9c4-4,8.5-6.1,8.7-6.4l0.5,0.9
				c2.8-2.8,5.4-4.7,6.4-5.4c0.7-2.4,3.3-6.6,4.3-8.5c0-0.2,0.2-0.5,0.2-0.5l2.1,1.7l-0.2,0.5c-1.9,3.5-0.9,10.2,2.6,18.9
				c0.5,0,1.2-0.2,1.7-0.2c0.5-7.6,1.9-15.6,1.9-15.8l2.4,0.5c-0.5,3.3,2.6,8.7,8.3,14.6h0.7c0.2-7.8,3.1-14.9,3.3-15.1l2.1,0.9
				c0,0-2.6,7.3,12,15.6c0.5,0,0.9,0,1.4,0.2c5.2,0.9,10.2,2.6,15.4,4.5c2.4,0.9,3.8,2.1,5,3.3c0.7,0.7,1.7,1.4,2.6,2.1
				c0.7,0.5,1.4,0.9,2.4,1.4c4,2.4,8,5,10.6,8c1.7,1.9,2.4,4,2.8,5.9c0.5,1.2,0.7,2.4,1.2,3.3c9.4,19.1,4.7,41.6,0.2,56.7
				c-1.4,4.7-2.8,9.4-4.7,14.4l-2.1,5.2L177.3,133.5z"/>
			<path class="st1" d="M107.1,13.7c0,0,0,0.2-0.2,0.5C106.9,13.9,106.9,13.7,107.1,13.7 M106.6,14.2c-2.8,5.2,0,14.2,2.8,20.8
				c1.2-0.2,2.4-0.2,3.5-0.5c0.2-8,1.9-16.5,1.9-16.5c-0.7,5.2,5.2,12.3,9,15.8c0.5,0,0.9,0,1.4,0c0.2,0,0.7,0,0.9,0
				c-0.2-8.3,3.1-16.1,3.1-16.1S126,26,142.1,35c0.5,0,1.2,0,1.4,0.2c5.7,1.2,10.6,2.6,15.1,4.5c3.8,1.4,4.5,3.5,7.6,5.4
				c4.5,2.8,9.7,5.7,12.5,9.2c2.4,2.8,2.6,5.9,4,9c8.7,17.5,5.4,37.8,0.2,56c-1.4,5-2.8,9.4-4.7,14.2c-0.2-3.3,0.2-6.9,0.2-10.4
				c0-1.7,0-3.3-0.2-5c-0.5-5-1.2-9.7-2.4-14.4c-1.2-5-2.8-10.4-5.4-15.4c-1.9,1.7-4.3,2.8-7.1,3.3s-5.7,0.7-8.5,0.7
				C135,92.4,113,82.2,103.1,77c-0.2,0-0.5-0.2-0.7-0.2c-1.4-0.5-3.1-0.9-4.5-1.2c-0.5,0-0.9,0-1.2,0c-1.7,0-3.3,0.2-5,0.9
				c-1.9,0.7-3.5,1.2-5.4,1.2c-0.2,0.2-0.2,0.2-0.5,0.5c-2.4,3.3-4.3,6.9-5.9,10.6c-1.7,3.8-3.1,7.6-4,11.6
				c-0.7,2.6-1.4,5.2-1.9,7.8l0,0c-1.7,8.3-1.4,16.3-2.8,24.6c-1.7-5.4-4.3-11.1-5.4-16.5c-1.4-5.7-2.6-11.6-3.1-17.5
				c-1.2-10.6-0.9-21.7,2.6-32.1c0.5-1.7,1.2-3.1,1.9-4.7c-0.2-2.6,0-5.2,0.9-7.8c4.7-13.7,17.2-21.7,17.2-21.7
				c-4,3.5-5.4,8.7-5.9,12.3l0,0c2.4-10.9,15.4-17.2,15.4-17.2c-2.4,1.4-4.5,5.9-6.1,10.4c4.7-9.4,13.5-14.9,13.5-14.9
				C102.9,20.6,105.7,15.6,106.6,14.2 M129.6,17.7L129.6,17.7L129.6,17.7 M105,12.3c-0.2,0.2-0.2,0.5-0.5,0.7
				c-1.2,2.1-3.3,5.9-4,8.3c-1.2,0.7-3.3,2.4-5.9,5l-0.7-0.9c-0.2,0.2-4.7,2.4-9,6.4l-0.5-0.9c-0.5,0.2-13.2,8.7-18.2,22.9
				c-0.9,2.6-1.2,5.4-0.9,8.3c-0.7,1.4-1.2,2.8-1.7,4.3c-3.3,9.4-4.3,20.3-2.8,33.1c0.7,5.7,1.7,11.6,3.3,17.7
				c0.7,3.3,1.9,6.6,3.1,9.7c0.9,2.4,1.7,4.7,2.4,6.9l2.8,9.9l1.7-10.2c0.7-3.8,0.9-7.6,1.2-11.3c0.2-4.5,0.7-9,1.7-13.2
				c0.5-2.6,1.2-5.2,1.9-7.6c1.2-4,2.4-7.8,4-11.3c1.7-3.5,3.3-6.9,5.4-9.7c1.7-0.2,3.3-0.7,5-1.4c1.4-0.5,2.6-0.7,4-0.7
				c0.2,0,0.7,0,0.9,0c1.2,0.2,2.6,0.7,4,0.9h0.2h0.2c11.1,5.9,33.1,15.6,52.9,15.6c3.1,0,6.1-0.2,9-0.7c1.9-0.2,3.8-1.2,5.7-2.1
				c1.7,3.8,2.8,7.8,4,12.3c1.2,4.5,1.9,9.2,2.4,14.2c0.2,1.4,0.2,2.8,0.2,4.7c0,1.2,0,2.6,0,3.8c0,2.1-0.2,4.5,0,6.6l0.5,11.3
				l4.3-10.6c1.9-5,3.3-9.7,4.7-14.4c4.5-15.4,9.4-38-0.2-57.6c-0.5-0.9-0.9-2.1-1.2-3.3c-0.7-1.9-1.4-4.3-3.1-6.4
				c-2.6-3.1-6.9-5.7-10.9-8.3c-0.7-0.5-1.4-0.9-2.4-1.4c-0.9-0.7-1.7-1.2-2.6-2.1c-1.2-1.2-2.8-2.6-5.4-3.5
				c-5.2-2.1-10.4-3.5-15.6-4.5c-0.2,0-0.7,0-1.2-0.2c-14.2-6.9-12-13.5-12-13.5l-4.5-1.7c-0.2,0.2-2.6,6.4-3.3,13.5
				c-4.5-5-7.1-9.7-6.6-12.3l-4.7-0.7c0,0.2-1.4,7.3-1.9,14.4c-3.1-7.6-3.8-13.5-2.1-16.5l0.2-0.5L105,12.3L105,12.3z"/>
		</g>
	</g>
</g>
</svg>
