<?xml version="1.0" encoding="utf-8"?>
<!-- Generator: Adobe Illustrator 22.0.0, SVG Export Plug-In . SVG Version: 6.00 Build 0)  -->
<svg version="1.1" id="Layer_1" xmlns="http://www.w3.org/2000/svg" xmlns:xlink="http://www.w3.org/1999/xlink" x="0px" y="0px"
	 viewBox="0 0 250.5 300" style="enable-background:new 0 0 250.5 300;" xml:space="preserve">
<style type="text/css">
	.st0{fill:#F18889;}
	.st1{fill:#FFFFFF;}
	.st2{fill:#F5B0B0;}
	.st3{fill:#E7393A;}
</style>
<g id="red">
	<g>
		<g>
			<path class="st0" d="M125.2,286.8c-51.5,0-106.5-5-114.1-15.6c-0.9-1.4-1.2-3.1-0.7-4.7c9.4-24.6,24.3-30.5,37.8-32.8
				c16.3-2.8,41.3-10.2,43.5-15.8c0.7-1.9,0.9-25.7,1.2-34.5v-2.6l1.9,1.7c3.3,2.6,17.2,4.7,31.7,4.7s25.5-2.1,29.5-5.4l1.9-1.7v2.6
				c0,8,0.5,33.1,1.2,35.2c2.1,5.4,26.9,12.8,43.2,15.8c13.5,2.4,28.3,8.3,37.8,32.8c0.7,1.7,0.5,3.3-0.7,4.7
				C232,281.8,176.7,286.8,125.2,286.8z"/>
			<path class="st1" d="M156.7,182.6c0,5,0.2,33.1,1.2,35.4c2.6,6.9,32.1,14.4,44.2,16.5c12,2.1,27.4,6.9,36.9,32.1
				c4.7,12.5-54.3,18.9-113.6,18.9S6.9,279.2,11.6,266.7c9.4-25.3,24.8-30,36.9-32.1c12-2.1,41.6-9.4,44.2-16.5
				c0.9-2.4,1.2-30.2,1.2-35c3.5,3.1,18.2,5.2,32.6,5.2C139.2,188.3,151.9,186.6,156.7,182.6 M159,177.4l-3.8,3.3
				c-3.8,3.1-14.6,5.2-28.8,5.2c-15.8,0-28.3-2.4-30.9-4.5l-3.8-3.1v5c0,8.5-0.5,31.7-0.9,34.3c-1.7,4.5-24.1,11.6-42.5,14.9
				c-13.7,2.4-29.1,8.3-38.7,33.5c-0.7,2.1-0.5,4,0.7,5.9c8.3,12,67.1,16.3,115,16.3s106.8-4.3,115-16.3c1.2-1.9,1.4-3.8,0.7-5.9
				c-9.7-25.3-24.8-31.2-38.7-33.5c-18.2-3.3-40.9-10.6-42.5-14.9c-0.7-2.4-0.9-26.9-0.9-34.7L159,177.4L159,177.4z"/>
		</g>
		<g>
			<path class="st2" d="M123.8,209.5c-16.1-0.7-28.1-13.7-31.4-17.7l-0.2-0.2c-12.3-14.4-14.9-27.9-15.4-31.7
				c-2.6-0.5-8.7-2.8-12.3-18.2c-1.7-7.6-1.7-12.3,0.2-14.6c0.7-0.9,1.9-1.7,3.3-1.7c0.2,0,0.2,0,0.5,0C58.4,67.6,104,51,104.5,50.8
				c5.9-1.7,11.3-2.6,16.5-2.6c1.4,0,2.8,0,4,0.2c1.4-0.2,2.6-0.2,4-0.2c5.2,0,10.6,0.9,16.5,2.6c0.5,0.2,46.1,16.8,35.9,74.6
				c0.2,0,0.2,0,0.5,0c1.4,0,2.6,0.5,3.3,1.7c1.9,2.4,1.9,7.1,0.2,14.6c-3.5,15.4-9.7,18-12.3,18.2c-0.5,3.8-2.8,16.5-14.4,30.5
				l-0.7,0.9l0,0c-10.9,12-22,18.2-33.3,18.2C124.5,209.5,124.1,209.5,123.8,209.5z"/>
			<path class="st1" d="M121,49.4c1.4,0,2.8,0,4,0.2c1.2-0.2,2.6-0.2,4-0.2c4.5,0,9.7,0.7,16.1,2.6c0,0,46.1,16.1,34.7,75.1
				c0,0,0.9-0.5,1.9-0.5c2.4,0,5.4,2.1,2.4,14.6c-3.8,16.3-10.4,17.5-11.8,17.5c-0.2,0-0.2,0-0.2,0s-0.9,14.9-14.2,30.9l0,0
				c-10.9,12.5-22,18.7-33.1,18.7c-0.5,0-0.7,0-1.2,0c-15.6-0.7-27.4-13.7-30.5-17.2l0,0c-14.4-16.8-15.4-32.4-15.4-32.4s0,0-0.2,0
				c-1.4,0-8-0.9-11.8-17.5c-3.1-12.8,0.2-14.6,2.4-14.6c0.9,0,1.9,0.5,1.9,0.5C58.9,68,104.9,52,104.9,52
				C111.3,50.1,116.7,49.4,121,49.4 M121,47v2.4V47c-5.2,0-10.9,0.9-16.8,2.6c-0.5,0.2-12.3,4.5-22.7,16.1
				c-9.2,10.4-19.1,28.8-14.2,58.6c-1.4,0.2-2.4,0.9-3.3,1.9c-2.1,2.6-2.4,7.6-0.5,15.6c3.3,14.4,9,18.2,12.3,18.9
				c0.7,5,3.8,17.7,15.4,31.4l0.2,0.2c3.3,4,15.6,17.5,32.1,18.2c0.5,0,0.7,0,1.2,0c11.3,0,22.4-5.9,33.3-17.7l0,0l1.7-1.9
				c10.9-13.2,13.7-25.5,14.4-30.2c3.5-0.9,9-4.5,12.3-18.9c1.9-8,1.7-13-0.5-15.6c-0.9-0.9-1.9-1.7-3.3-1.9
				c4.7-29.5-5-48.2-14.2-58.6c-10.4-11.8-22.2-15.8-22.7-16.1c-5.9-1.9-11.6-2.8-16.8-2.8c-1.4,0-2.8,0-4,0.2
				C123.8,47,122.4,47,121,47L121,47z"/>
		</g>
		<g>
			<g>
				<path class="st3" d="M174.1,140.6c-0.5,0-1.2-0.2-1.9-0.9c-2.4-2.1-5-10.4-2.4-22.9c0.5-2.1,0.2-5.9-0.7-9.9
					c-1.9-8.7-9.2-15.4-18-16.1c-13.5-0.9-30.5-8-30.5-8.3c-4.7-1.9-9.2-3.1-13.2-3.1s-7.8,0.9-11.1,3.1
					c-15.8,9.9-17.7,40.2-17.7,40.4v0.2c-0.5,1.2-0.7,2.6-0.7,4.3c0,8.3-1.4,10.6-2.4,11.6c-0.7,0.7-1.4,0.7-1.9,0.7
					c-2.1,0-2.4-2.1-2.6-3.8c-0.2-1.9-0.5-5-2.6-7.1c-4-4.5-9.7-19.1-9.7-33.8c0-0.2-4.3-38.3,24.3-59.5l5.4-4l-2.4,6.1
					c0,0.2-0.9,2.6-1.9,6.1c5.4-6.9,14.9-16.8,25.3-20.8l7.3-2.6l-5.2,5.9c0,0-3.3,3.8-6.4,8.3c1.9-0.7,3.1-1.2,3.1-1.2l8.7-3.1
					l-1.2,1.2c1.7-0.7,3.3-1.2,5-1.7c3.8-1.2,7.6-1.9,11.3-1.9c7.1,0,11.3,2.4,11.6,2.4l7.3,4H151c0.2,0.2,0.7,0.2,0.9,0.5
					c10.4,4.3,14.9,10.4,19.1,15.6c3.3,4.3,6.1,8,11.6,9.9c3.1,0.9,5.9,1.4,8.3,1.4c4.7,0,6.4-2.1,6.4-2.1l0.7-0.9l0.9,0.5l2.4,1.4
					l-0.5,0.9c-0.2,0.5-5.9,10.2-16.5,10.6c0.5,1.4,0.9,3.1,1.4,5c6.4,17.5,15.6,20.6,15.6,20.8l13.5,4l-13.9-0.2
					c-5.2,0-9.7-1.2-13.2-3.1c0,0.7-0.2,1.4-0.2,2.4c-0.5,4-1.2,8.7-1.4,15.4c-0.5,7.8-1.9,9.2-4.3,10.9c-1.2,0.9-2.4,1.7-3.8,5.2
					c-1.2,2.8-1.2,5.9-1.2,5.9v1.4l-1.4,0.5C174.4,140.6,174.4,140.6,174.1,140.6z"/>
				<path class="st1" d="M112.7,23.4l-2.1,2.4c0,0-5.2,5.9-8.5,11.8c3.8-1.9,6.4-2.8,6.6-2.8l3.5-1.2l-2.1,2.1
					c2.8-1.4,6.6-3.1,11.3-4.5c4-1.4,7.8-1.7,10.9-1.7c6.9,0,10.9,2.1,11.1,2.4l2.8,1.7H143h-0.2c-0.2,0-0.7,0-1.2,0
					c3.1,0.5,6.4,1.4,10.2,2.8c9.9,4.3,14.6,10.2,18.7,15.4c3.5,4.5,6.4,8.3,12.3,10.2c3.5,1.2,6.4,1.7,8.7,1.7
					c5.4,0,7.3-2.4,7.3-2.6l1.4,0.9C199.9,62.4,194,72,183.6,72c-0.2,0-0.5,0-0.7,0c0.5,1.4,1.2,3.8,2.1,6.6
					c6.9,18.4,16.3,21.5,16.3,21.5l5.4,1.7h-5.7c-5.9-0.2-10.6-1.4-14.2-3.8c-0.2,1.2-0.2,2.6-0.5,4c-0.5,4-1.2,8.7-1.7,15.6
					c-0.5,7.3-1.7,8.5-3.8,10.2c-1.2,0.9-2.6,1.9-4.3,5.7c-1.2,2.8-1.4,6.4-1.4,6.4v0.7l-0.5,0.2h-0.2c-0.2,0-0.7-0.2-1.2-0.5
					c-1.7-1.7-4.5-9.2-2.1-21.7c0.5-2.4,0.2-6.1-0.7-10.4c-2.1-9.2-9.9-16.1-18.9-17c-13-1.2-29.8-8.3-30-8.3
					c-5-2.1-9.4-3.1-13.7-3.1c-4.3,0-8.3,1.2-11.6,3.3c-16.3,10.2-18.2,41.1-18.2,41.3v0.2c-0.5,1.2-0.7,2.6-0.7,4.3
					c0,5.9-0.7,9.4-2.1,10.9c-0.5,0.5-0.9,0.5-0.9,0.5l0,0c-1.2,0-1.2-1.2-1.4-2.8c-0.2-2.1-0.7-5.2-2.8-7.8
					c-3.8-4.5-9.4-18.7-9.4-33.1c0-0.2-4-37.8,23.9-58.6l2.1-1.7l-0.9,2.4c0,0-2.1,5.4-3.5,11.8c4.5-6.4,15.4-20.3,28.3-25
					L112.7,23.4 M120.8,18l-8.7,3.3l-2.8,0.9c-8.5,3.1-16.1,9.9-22,16.3v-0.2l0.9-2.4l2.8-7.6l-6.4,4.7l-2.1,1.7
					C54.1,55.5,57.2,92.4,57.7,95.2c0,14.9,5.9,29.5,10.2,34.5c1.7,1.9,1.9,4.5,2.1,6.4c0.2,1.7,0.5,5,3.8,5c0.9,0,1.9-0.5,2.6-1.2
					c1.2-1.2,2.8-3.8,2.8-12.5c0-1.4,0.2-2.6,0.7-3.5v-0.2v-0.2v-0.2v-0.2v-0.2c0-0.2,1.9-30,17.2-39.4c3.1-1.9,6.6-2.8,10.4-2.8
					s8,0.9,12.8,2.8c0.2,0,17.2,7.3,30.7,8.5c8.3,0.7,15.1,6.9,17,15.1c0.9,4.7,1.2,8,0.7,9.4c-2.6,13.2,0.2,21.5,2.8,23.9
					c0.9,0.9,2.1,1.2,2.8,1.2c0.2,0,0.7,0,0.9,0l0.5-0.2l1.7-0.5v-1.9V138c0,0,0-3.1,1.2-5.4c1.4-3.1,2.4-3.8,3.5-4.7
					c2.8-2.1,4.3-4.3,4.7-11.8c0.2-6.6,0.9-11.3,1.4-15.4v-0.2c0-0.2,0-0.5,0-0.5c3.3,1.4,7.6,2.4,12.3,2.4h5.7l17,0.2l-16.1-5
					l-5.4-1.7c0,0-8.5-3.1-14.9-20.1c-0.5-1.2-0.7-2.6-0.9-3.5c10.2-1.4,15.8-10.6,16.1-11.1l1.2-1.9l-1.9-1.2l-1.4-0.9L198,56
					l-1.2,1.9c-0.2,0.2-1.7,1.7-5.4,1.7c-2.4,0-5-0.5-8-1.4c-5-1.7-7.8-5.2-11.1-9.4c-4-5.2-9-11.6-19.6-16.1c0,0-0.2,0-0.2-0.2
					l-4.7-2.6l-2.8-1.7c-0.5-0.2-5-2.6-12.3-2.6c-3.8,0-7.6,0.7-11.3,1.9l1.2-1.2L112,30l-2.8,0.9c2.1-2.8,4-5,4-5l2.1-2.4L120.8,18
					L120.8,18z"/>
			</g>
		</g>
	</g>
</g>
</svg>
