<svg xmlns="http://www.w3.org/2000/svg" viewBox="0 0 129.98 148.47"><defs><style>.cls-1{fill:#70a8e2;}</style></defs><title>snowflake5transparent</title><g id="Layer_2" data-name="Layer 2"><g id="OBJECT"><path class="cls-1" d="M63.82,58.18,53.9,63.9c-1.32.77-3.4,1.52-3.4,3.34V79.12c0,1.53-.3,3.31,1.26,4.21l10.58,6.11,1.48.85a2.33,2.33,0,0,0,2.34,0l12.17-7a2.12,2.12,0,0,0,1.06-1.35,2.62,2.62,0,0,0,.09-.65V69.12c0-.94.18-2.23-.32-3.08a6,6,0,0,0-2.31-1.69l-4.21-2.43-6.48-3.74A2.33,2.33,0,0,0,63.82,58.18Z"/><path class="cls-1" d="M127.36,104.2,111.6,95.1l13.09-3.51A5.24,5.24,0,0,0,122,81.47L99.87,87.4V62.47c0-.46,0-.92,0-1.39L122,67a5.23,5.23,0,1,0,2.71-10.11L111.6,53.37l15.76-9.1a5.23,5.23,0,0,0-5.23-9.07l-15.77,9.1,3.51-13.09A5.23,5.23,0,1,0,99.76,28.5L93.83,50.61l3,1.73a7.19,7.19,0,0,1,.61.41,7.19,7.19,0,0,0-.61-.41L71.37,37.65l-3.55-2L71,37.45,87.22,21.26a5.24,5.24,0,1,0-7.41-7.41l-9.58,9.59V5.24a5.24,5.24,0,1,0-10.47,0v18.2l-9.59-9.59a5.24,5.24,0,1,0-7.4,7.41L59,37.46l3.23-1.86-26,15L30.23,28.5a5.24,5.24,0,0,0-10.12,2.71L23.62,44.3,7.85,35.2a5.23,5.23,0,1,0-5.23,9.07l15.76,9.1L5.29,56.88A5.23,5.23,0,1,0,8,67l22.14-5.93V86.53c0,.28,0,.57,0,.87L8,81.47A5.24,5.24,0,0,0,5.29,91.59L18.38,95.1,2.62,104.2a5.23,5.23,0,0,0,5.23,9.07l15.77-9.11-3.51,13.1A5.24,5.24,0,0,0,30.23,120l5.92-22.12.3.16,10.14,5.85,15.6,9a5.66,5.66,0,0,0,5.63,0l2.24-1.29-2.24,1.29a5.66,5.66,0,0,1-5.63,0L59,111l-16.19,16.2a5.23,5.23,0,0,0,7.4,7.4L59.76,125v18.2a5.24,5.24,0,1,0,10.47,0V125l9.58,9.58a5.24,5.24,0,0,0,7.41-7.4L71,111,91.67,99.1c.67-.39,1.43-.78,2.2-1.19h0l5.91,22a5.23,5.23,0,1,0,10.11-2.71l-3.51-13.1,15.77,9.11a5.23,5.23,0,0,0,5.23-9.07ZM30.12,87.4l0,.88Zm0,1.08c0,.24,0,.48,0,.73C30.07,89,30.07,88.72,30.08,88.48Zm0,1.06v0Zm.05,1.54,0-.57Zm0,.37c0,.19.05.37.08.55C30.2,91.82,30.17,91.64,30.15,91.45Zm.3,1.46c-.05-.18-.11-.37-.15-.56C30.34,92.54,30.4,92.73,30.45,92.91Zm.09.28a4.16,4.16,0,0,0,.36.77,4.48,4.48,0,0,0,.47.67A4.48,4.48,0,0,1,30.9,94,4.16,4.16,0,0,1,30.54,93.19Zm1,1.62a5.4,5.4,0,0,0,.41.42A5.4,5.4,0,0,1,31.55,94.81Zm1.81,1.47-.52-.35Zm-.73-.5-.46-.37Zm1.57,1c.67.38,1.34.72,1.95,1.07C35.54,97.5,34.87,97.16,34.2,96.78Zm-.66-.39.62.37Zm55.18-8.46L65,101.62,41.29,87.93V60.54L65,46.85,88.72,60.54ZM99.86,57.72l0,.4Zm0,3.29c0-.19,0-.39,0-.58C99.91,60.62,99.9,60.82,99.9,61Zm0-.81c0-.15,0-.3,0-.45C99.92,59.9,99.92,60.05,99.91,60.2Zm0-.71v0Zm0-1.09c0,.13,0,.26,0,.39C99.91,58.66,99.91,58.53,99.9,58.4Zm-.06-.94L99.78,57Zm-.09-.65c0-.21-.08-.42-.12-.63C99.67,56.39,99.72,56.6,99.75,56.81Zm-.13-.64a5.72,5.72,0,0,0-.17-.59A5.72,5.72,0,0,1,99.62,56.17Zm-.24-.79L99.23,55Zm-.26-.61c-.06-.11-.11-.23-.18-.34C99,54.54,99.06,54.66,99.12,54.77Zm-.31-.56-.22-.32Zm-.38-.52-.27-.31ZM98,53.2c-.11-.11-.23-.2-.35-.3C97.74,53,97.86,53.09,98,53.2ZM94.61,97.51l-.22.12Zm2.22-1.38-.41.29Zm-.65.45-.36.23Zm-.63.39-.36.21Zm2.12-1.51.37-.34ZM97,96c.18-.14.36-.28.53-.43C97.36,95.73,97.18,95.87,97,96Zm2.68-3.54c0-.15.07-.31.1-.47C99.75,92.16,99.72,92.32,99.68,92.47ZM98.2,95c.11-.11.21-.23.31-.35C98.41,94.72,98.31,94.84,98.2,95Zm.46-.52L99,94Zm.39-.54a6.28,6.28,0,0,0,.31-.57A6.28,6.28,0,0,1,99.05,93.89Zm.39-.75a4.7,4.7,0,0,0,.17-.45A4.7,4.7,0,0,1,99.44,93.14Zm.38-1.35a5.84,5.84,0,0,0,.05-.73A5.84,5.84,0,0,1,99.82,91.79Z"/></g></g></svg>