<svg xmlns="http://www.w3.org/2000/svg" viewBox="0 0 155.07 156.04"><defs><style>.cls-1{fill:#70a8e2;}</style></defs><title>snowflake4transparent</title><g id="Layer_2" data-name="Layer 2"><g id="OBJECT"><path class="cls-1" d="M82.77,147V9A5.24,5.24,0,0,0,72.3,9V147a5.24,5.24,0,1,0,10.47,0Z"/><path class="cls-1" d="M99.76,1.53a5.25,5.25,0,0,0-7.41,0L77.53,16.35,62.71,1.53a5.24,5.24,0,0,0-7.4,7.41L73.63,27.26a5.78,5.78,0,0,0,7.81,0L99.76,8.94A5.25,5.25,0,0,0,99.76,1.53Z"/><path class="cls-1" d="M99.76,25.7a5.23,5.23,0,0,0-7.41,0L77.53,40.52,62.71,25.7a5.23,5.23,0,0,0-7.4,7.4L73.63,51.42a5.78,5.78,0,0,0,7.81,0L99.76,33.1A5.24,5.24,0,0,0,99.76,25.7Z"/><path class="cls-1" d="M55.31,154.51a5.24,5.24,0,0,0,7.4,0l14.82-14.82,14.82,14.82a5.24,5.24,0,1,0,7.41-7.4L81.44,128.79a5.75,5.75,0,0,0-7.81,0L55.31,147.11A5.22,5.22,0,0,0,55.31,154.51Z"/><path class="cls-1" d="M55.31,130.35a5.24,5.24,0,0,0,7.4,0l14.82-14.82,14.82,14.82a5.24,5.24,0,1,0,7.41-7.41L81.44,104.62a5.78,5.78,0,0,0-7.81,0L55.31,122.94A5.23,5.23,0,0,0,55.31,130.35Z"/><path class="cls-1" d="M139.91,108,20.4,39a5.24,5.24,0,1,0-5.24,9.07l119.51,69a5.23,5.23,0,1,0,5.24-9.06Z"/><path class="cls-1" d="M22.4,20.53a5.24,5.24,0,0,0-3.7,6.41l5.43,20.25L3.88,52.61A5.24,5.24,0,0,0,6.59,62.73l25-6.71a5.76,5.76,0,0,0,3.9-6.76l-6.7-25A5.24,5.24,0,0,0,22.4,20.53Z"/><path class="cls-1" d="M43.33,32.61A5.24,5.24,0,0,0,39.63,39l5.42,20.25L24.81,64.69a5.24,5.24,0,0,0,2.71,10.12l25-6.71a5.78,5.78,0,0,0,3.91-6.76l-6.71-25A5.24,5.24,0,0,0,43.33,32.61Z"/><path class="cls-1" d="M132.66,135.51a5.24,5.24,0,0,0,3.7-6.41l-5.42-20.25,20.24-5.42a5.23,5.23,0,1,0-2.71-10.11l-25,6.7a5.78,5.78,0,0,0-3.91,6.77l6.71,25A5.24,5.24,0,0,0,132.66,135.51Z"/><path class="cls-1" d="M111.74,123.43a5.24,5.24,0,0,0,3.7-6.41L110,96.77l20.25-5.42a5.24,5.24,0,0,0-2.71-10.12l-25,6.71a5.76,5.76,0,0,0-3.9,6.76l6.7,25A5.24,5.24,0,0,0,111.74,123.43Z"/><path class="cls-1" d="M134.67,39,15.16,108a5.23,5.23,0,1,0,5.24,9.06l119.51-69A5.24,5.24,0,0,0,134.67,39Z"/><path class="cls-1" d="M.18,97a5.24,5.24,0,0,0,3.7,6.41l20.25,5.42L18.7,129.1a5.24,5.24,0,0,0,10.12,2.71l6.7-25a5.76,5.76,0,0,0-3.9-6.77l-25-6.7A5.24,5.24,0,0,0,.18,97Z"/><path class="cls-1" d="M21.11,84.94a5.23,5.23,0,0,0,3.7,6.41l20.24,5.42L39.63,117a5.23,5.23,0,1,0,10.11,2.71l6.71-25a5.78,5.78,0,0,0-3.91-6.76l-25-6.71A5.23,5.23,0,0,0,21.11,84.94Z"/><path class="cls-1" d="M154.89,59a5.24,5.24,0,0,0-3.71-6.41l-20.24-5.42,5.42-20.25a5.23,5.23,0,1,0-10.11-2.71l-6.71,25a5.23,5.23,0,0,0,.64,4.14A5.16,5.16,0,0,0,123.45,56l25,6.71A5.24,5.24,0,0,0,154.89,59Z"/><path class="cls-1" d="M134,71.11a5.24,5.24,0,0,0-3.7-6.42L110,59.27,115.44,39a5.24,5.24,0,0,0-10.12-2.71l-6.7,25a5.76,5.76,0,0,0,3.9,6.76l25,6.71A5.24,5.24,0,0,0,134,71.11Z"/></g></g></svg>