<svg xmlns="http://www.w3.org/2000/svg" viewBox="0 0 129.98 148.47"><defs><style>.cls-1{fill:#70a8e2;}</style></defs><title>snowflake3transparent</title><g id="Layer_2" data-name="Layer 2"><g id="OBJECT"><path class="cls-1" d="M127.36,104.2,111.6,95.1l13.09-3.51A5.24,5.24,0,0,0,122,81.47L98.77,87.69l-.59-.34-9.6-13.12,9.6-13.11.59-.35L122,67a5.23,5.23,0,1,0,2.71-10.11L111.6,53.37l15.76-9.1a5.23,5.23,0,0,0-5.23-9.07l-15.77,9.1,3.51-13.09A5.23,5.23,0,1,0,99.76,28.5L93.54,51.71l-.61.35L76.78,53.81Q73.5,46.39,70.23,39v-.7l17-17a5.24,5.24,0,1,0-7.41-7.41l-9.58,9.59V5.24a5.24,5.24,0,1,0-10.47,0v18.2l-9.59-9.59a5.24,5.24,0,1,0-7.4,7.41l17,17V39q-3.28,7.44-6.56,14.86L37.05,52.06l-.61-.35L30.23,28.5a5.24,5.24,0,0,0-10.12,2.71L23.62,44.3,7.85,35.2a5.23,5.23,0,1,0-5.23,9.07l15.76,9.1L5.29,56.88A5.23,5.23,0,1,0,8,67l23.21-6.22.6.35,9.6,13.11-9.6,13.12-.6.34L8,81.47A5.24,5.24,0,0,0,5.29,91.59L18.38,95.1,2.62,104.2a5.23,5.23,0,0,0,5.23,9.07l15.77-9.11-3.51,13.1A5.23,5.23,0,1,0,30.22,120l6.22-23.21.61-.35L53.2,94.65l6.56,14.87v.7l-17,17a5.23,5.23,0,0,0,7.4,7.4L59.76,125v18.2a5.24,5.24,0,1,0,10.47,0V125l9.58,9.58a5.24,5.24,0,0,0,7.41-7.4l-17-17v-.7q3.27-7.44,6.55-14.87l16.15,1.76.61.35L99.76,120a5.23,5.23,0,1,0,10.11-2.71l-3.51-13.1,15.77,9.11a5.23,5.23,0,0,0,5.23-9.07ZM65,87.83a13.6,13.6,0,1,1,13.6-13.6A13.59,13.59,0,0,1,65,87.83Z"/></g></g></svg>