<svg xmlns="http://www.w3.org/2000/svg" viewBox="0 0 169.02 172.15"><defs><style>.cls-1{fill:#70a8e2;}</style></defs><title>snowflake8transparent</title><g id="Layer_2" data-name="Layer 2"><g id="OBJECT"><path class="cls-1" d="M162.42,105.4l-23.2,6.22-8.11-4.68,13.1-3.51a5.23,5.23,0,1,0-2.71-10.11l-23.21,6.21-1.06-.61q3-5.11,5.92-10.24a5.66,5.66,0,0,0,0-5.63q-2.87-5-5.74-9.93l.88-.5,23.21,6.22a5.24,5.24,0,0,0,2.71-10.12l-13.1-3.51,8.11-4.67,23.2,6.21a5.23,5.23,0,1,0,2.71-10.11l-15.7-4.21a5.22,5.22,0,0,0-3.33-5.75L150.31,31a5.23,5.23,0,1,0-10.11-2.71L134,51.47l-8.1,4.68,3.51-13.1a5.24,5.24,0,0,0-10.12-2.71l-6.21,23.21-.88.5q-1.41-2.41-2.8-4.85c-1.85-3.2-3.67-8.2-8-8.2H89.74v-.91l17-17a5.23,5.23,0,1,0-7.4-7.4l-9.59,9.58V25.93l17-17a5.24,5.24,0,1,0-7.4-7.41L87.83,13a5.23,5.23,0,0,0-6.64,0L69.69,1.53a5.24,5.24,0,0,0-7.41,7.41l17,17v9.35L69.69,25.7a5.24,5.24,0,1,0-7.41,7.4l17,17V51H72.74c-3.66,0-7.95-.72-10.12,3l-5.78,10-.88-.5L49.74,40.34a5.23,5.23,0,1,0-10.11,2.71l3.51,13.1L35,51.47,28.82,28.26A5.24,5.24,0,0,0,18.7,31l4.21,15.71a5.23,5.23,0,0,0-3.32,5.75L3.88,56.64A5.23,5.23,0,1,0,6.59,66.75L29.8,60.54l8.1,4.67L24.81,68.72a5.24,5.24,0,0,0,2.71,10.12l23.21-6.22.87.5L47.92,79.5l-2.05,3.55a5.66,5.66,0,0,0,0,5.63q3,5.11,5.92,10.24l-1.06.61L27.52,93.32a5.23,5.23,0,1,0-2.71,10.11l13.09,3.51-8.1,4.68L6.59,105.4a5.23,5.23,0,1,0-2.71,10.11l15.71,4.21a5.25,5.25,0,0,0,3.32,5.76l-4.21,15.7a5.24,5.24,0,0,0,10.12,2.71L35,120.68l8.1-4.67L39.63,129.1a5.23,5.23,0,1,0,10.11,2.71L56,108.6,57,108l5.76,10A5.17,5.17,0,0,0,66,120.53a5.84,5.84,0,0,0,1.56.2H79.27v1.33l-17,17a5.24,5.24,0,0,0,7.41,7.41l9.58-9.59v9.35l-17,17a5.24,5.24,0,1,0,7.41,7.41l11.5-11.5a5.23,5.23,0,0,0,6.64,0l11.5,11.5a5.24,5.24,0,1,0,7.4-7.41l-17-17v-9.35l9.59,9.59a5.24,5.24,0,0,0,7.4-7.41l-17-17v-1.33h7.07c2.28,0,5.37.44,7.42-.76s3-3.69,4-5.55L112,108l1.06.61,6.21,23.21a5.24,5.24,0,0,0,10.12-2.71L125.88,116l8.1,4.67,6.22,23.21a5.23,5.23,0,1,0,10.11-2.71l-4.21-15.7a5.24,5.24,0,0,0,3.33-5.76l15.7-4.21a5.23,5.23,0,1,0-2.71-10.11Zm-77.91-2.6a16.73,16.73,0,1,1,16.72-16.72A16.72,16.72,0,0,1,84.51,102.8Z"/></g></g></svg>