<svg xmlns="http://www.w3.org/2000/svg" viewBox="0 0 155.07 156.04"><defs><style>.cls-1{fill:#70a8e2;}</style></defs><title>snowflake6transparent</title><g id="Layer_2" data-name="Layer 2"><g id="OBJECT"><path class="cls-1" d="M82.77,130.91V25.13a5.24,5.24,0,0,0-10.47,0V130.91a5.24,5.24,0,1,0,10.47,0Z"/><path class="cls-1" d="M99.76,1.53a5.25,5.25,0,0,0-7.41,0L77.53,16.35,62.71,1.53a5.24,5.24,0,0,0-7.4,7.41L73.63,27.26a5.78,5.78,0,0,0,7.81,0L99.76,8.94A5.25,5.25,0,0,0,99.76,1.53Z"/><path class="cls-1" d="M99.76,25.7a5.23,5.23,0,0,0-7.41,0L77.53,40.52,62.71,25.7a5.23,5.23,0,0,0-7.4,7.4L73.63,51.42a5.78,5.78,0,0,0,7.81,0L99.76,33.1A5.24,5.24,0,0,0,99.76,25.7Z"/><path class="cls-1" d="M99.76,57.91a5.25,5.25,0,0,0-7.41,0L77.53,72.73,62.71,57.91a5.24,5.24,0,0,0-7.4,7.41L73.63,83.64a5.78,5.78,0,0,0,7.81,0L99.76,65.32A5.25,5.25,0,0,0,99.76,57.91Z"/><path class="cls-1" d="M55.31,154.51a5.24,5.24,0,0,0,7.4,0l14.82-14.82,14.82,14.82a5.24,5.24,0,1,0,7.41-7.4L81.44,128.79a5.75,5.75,0,0,0-7.81,0L55.31,147.11A5.22,5.22,0,0,0,55.31,154.51Z"/><path class="cls-1" d="M55.31,130.35a5.24,5.24,0,0,0,7.4,0l14.82-14.82,14.82,14.82a5.24,5.24,0,1,0,7.41-7.41L81.44,104.62a5.78,5.78,0,0,0-7.81,0L55.31,122.94A5.23,5.23,0,0,0,55.31,130.35Z"/><path class="cls-1" d="M55.31,98.13a5.24,5.24,0,0,0,7.4,0L77.53,83.31,92.35,98.13a5.24,5.24,0,1,0,7.41-7.4L81.44,72.41a5.75,5.75,0,0,0-7.81,0L55.31,90.73A5.22,5.22,0,0,0,55.31,98.13Z"/><path class="cls-1" d="M126,99.93,34.35,47a5.24,5.24,0,1,0-5.24,9.07L120.72,109A5.23,5.23,0,0,0,126,99.93Z"/><path class="cls-1" d="M22.4,20.53a5.24,5.24,0,0,0-3.7,6.41l5.43,20.25L3.88,52.61A5.24,5.24,0,0,0,6.59,62.73l25-6.71a5.76,5.76,0,0,0,3.9-6.76l-6.7-25A5.24,5.24,0,0,0,22.4,20.53Z"/><path class="cls-1" d="M43.33,32.61A5.24,5.24,0,0,0,39.63,39l5.42,20.25L24.81,64.69a5.24,5.24,0,0,0,2.71,10.12l25-6.71a5.78,5.78,0,0,0,3.91-6.76l-6.71-25A5.24,5.24,0,0,0,43.33,32.61Z"/><path class="cls-1" d="M71.23,48.72a5.24,5.24,0,0,0-3.7,6.41L73,75.38,52.71,80.8a5.24,5.24,0,0,0,2.71,10.12l25-6.71a5.75,5.75,0,0,0,3.91-6.76l-6.71-25A5.23,5.23,0,0,0,71.23,48.72Z"/><path class="cls-1" d="M132.66,135.51a5.24,5.24,0,0,0,3.7-6.41l-5.42-20.25,20.24-5.42a5.23,5.23,0,1,0-2.71-10.11l-25,6.7a5.78,5.78,0,0,0-3.91,6.77l6.71,25A5.24,5.24,0,0,0,132.66,135.51Z"/><path class="cls-1" d="M111.74,123.43a5.24,5.24,0,0,0,3.7-6.41L110,96.77l20.25-5.42a5.24,5.24,0,0,0-2.71-10.12l-25,6.71a5.76,5.76,0,0,0-3.9,6.76l6.7,25A5.24,5.24,0,0,0,111.74,123.43Z"/><path class="cls-1" d="M83.83,107.32a5.24,5.24,0,0,0,3.71-6.41L82.11,80.66l20.25-5.42a5.23,5.23,0,0,0-2.71-10.11l-25,6.7a5.76,5.76,0,0,0-3.9,6.77l6.7,25A5.24,5.24,0,0,0,83.83,107.32Z"/><path class="cls-1" d="M120.72,47,29.11,99.93A5.24,5.24,0,1,0,34.35,109L126,56.11A5.23,5.23,0,1,0,120.72,47Z"/><path class="cls-1" d="M.18,97a5.24,5.24,0,0,0,3.7,6.41l20.25,5.42L18.7,129.1a5.24,5.24,0,0,0,10.12,2.71l6.7-25a5.76,5.76,0,0,0-3.9-6.77l-25-6.7A5.24,5.24,0,0,0,.18,97Z"/><path class="cls-1" d="M21.11,84.94a5.23,5.23,0,0,0,3.7,6.41l20.24,5.42L39.63,117a5.23,5.23,0,1,0,10.11,2.71l6.71-25a5.78,5.78,0,0,0-3.91-6.76l-25-6.71A5.23,5.23,0,0,0,21.11,84.94Z"/><path class="cls-1" d="M49,68.83a5.24,5.24,0,0,0,3.7,6.41L73,80.66l-5.42,20.25a5.23,5.23,0,1,0,10.11,2.71l6.71-25a5.76,5.76,0,0,0-3.91-6.77l-25-6.7A5.23,5.23,0,0,0,49,68.83Z"/><path class="cls-1" d="M154.89,59a5.24,5.24,0,0,0-3.71-6.41l-20.24-5.42,5.42-20.25a5.23,5.23,0,1,0-10.11-2.71l-6.71,25a5.23,5.23,0,0,0,.64,4.14A5.16,5.16,0,0,0,123.45,56l25,6.71A5.24,5.24,0,0,0,154.89,59Z"/><path class="cls-1" d="M134,71.11a5.24,5.24,0,0,0-3.7-6.42L110,59.27,115.44,39a5.24,5.24,0,0,0-10.12-2.71l-6.7,25a5.76,5.76,0,0,0,3.9,6.76l25,6.71A5.24,5.24,0,0,0,134,71.11Z"/><path class="cls-1" d="M106.06,87.21a5.24,5.24,0,0,0-3.7-6.41L82.11,75.38l5.43-20.25a5.24,5.24,0,0,0-10.12-2.71l-6.7,25a5.76,5.76,0,0,0,3.9,6.76l25,6.71A5.23,5.23,0,0,0,106.06,87.21Z"/></g></g></svg>