<svg xmlns="http://www.w3.org/2000/svg" viewBox="0 0 129.98 148.47"><defs><style>.cls-1{fill:#70a8e2;}</style></defs><title>snowflake7transparent</title><g id="Layer_2" data-name="Layer 2"><g id="OBJECT"><path class="cls-1" d="M70.23,143.23V5.24a5.24,5.24,0,1,0-10.47,0v138a5.24,5.24,0,1,0,10.47,0Z"/><path class="cls-1" d="M87.22,13.85a5.25,5.25,0,0,0-7.41,0L65,28.68,50.17,13.85a5.24,5.24,0,1,0-7.4,7.41L61.09,39.58a5.78,5.78,0,0,0,7.81,0L87.22,21.26A5.25,5.25,0,0,0,87.22,13.85Z"/><path class="cls-1" d="M42.77,134.61a5.22,5.22,0,0,0,7.4,0L65,119.79l14.82,14.82a5.24,5.24,0,0,0,7.41-7.4L68.9,108.89a5.78,5.78,0,0,0-7.81,0L42.77,127.21A5.22,5.22,0,0,0,42.77,134.61Z"/><path class="cls-1" d="M127.36,104.2,7.85,35.2a5.23,5.23,0,1,0-5.23,9.07l119.51,69a5.23,5.23,0,0,0,5.23-9.07Z"/><path class="cls-1" d="M23.81,24.8a5.24,5.24,0,0,0-3.7,6.41l5.43,20.24L5.29,56.88A5.23,5.23,0,1,0,8,67l25-6.7a5.76,5.76,0,0,0,3.9-6.77l-6.7-25A5.24,5.24,0,0,0,23.81,24.8Z"/><path class="cls-1" d="M106.17,123.67a5.24,5.24,0,0,0,3.7-6.41L104.45,97l20.24-5.42A5.24,5.24,0,0,0,122,81.47L97,88.18a5.75,5.75,0,0,0-3.91,6.76l6.71,25A5.23,5.23,0,0,0,106.17,123.67Z"/><path class="cls-1" d="M122.13,35.2,2.62,104.2a5.23,5.23,0,0,0,5.23,9.07l119.51-69a5.23,5.23,0,0,0-5.23-9.07Z"/><path class="cls-1" d="M1.59,85.18a5.24,5.24,0,0,0,3.7,6.41L25.54,97l-5.43,20.25A5.24,5.24,0,0,0,30.23,120l6.7-25A5.76,5.76,0,0,0,33,88.18L8,81.47A5.24,5.24,0,0,0,1.59,85.18Z"/><path class="cls-1" d="M128.39,63.29a5.24,5.24,0,0,0-3.7-6.41l-20.24-5.43,5.42-20.24A5.23,5.23,0,1,0,99.76,28.5l-6.71,25A5.76,5.76,0,0,0,97,60.29L122,67A5.23,5.23,0,0,0,128.39,63.29Z"/></g></g></svg>