<svg xmlns="http://www.w3.org/2000/svg" viewBox="0 0 169.02 172.15"><defs><style>.cls-1{fill:#70a8e2;}</style></defs><title>snowflake2transparent</title><g id="Layer_2" data-name="Layer 2"><g id="OBJECT"><path class="cls-1" d="M121.55,81.62l-16.62-7.33,2-18c.41-3.74-4.76-6.67-7.77-4.46L84.51,62.49,69.9,51.8c-3-2.21-8.18.72-7.77,4.46q1,9,2,18L47.47,81.62c-3.38,1.49-3.38,7.42,0,8.92l16.62,7.32q-1,9-2,18c-.41,3.73,4.75,6.66,7.77,4.46l14.61-10.7,14.61,10.7c3,2.2,8.18-.73,7.77-4.46l-2-18,16.62-7.32C124.93,89,124.93,83.11,121.55,81.62ZM81.9,98.83l-8.24,6c.36-3.4.73-6.79,1.1-10.19a5,5,0,0,0-2.56-4.46l-9.4-4.14,9.4-4.15a5,5,0,0,0,2.56-4.46c-.37-3.4-.74-6.79-1.1-10.19l8.24,6a4.05,4.05,0,0,0,2.61.75,4,4,0,0,0,2.6-.75l8.25-6L94.25,77.47a5,5,0,0,0,2.56,4.46l9.41,4.15-9.41,4.14a5,5,0,0,0-2.56,4.46l1.11,10.19-8.25-6A5,5,0,0,0,81.9,98.83Z"/><path class="cls-1" d="M89.74,155.07v-138a5.24,5.24,0,1,0-10.47,0v138a5.24,5.24,0,1,0,10.47,0Z"/><path class="cls-1" d="M106.73,1.53a5.24,5.24,0,0,0-7.4,0L84.51,16.35,69.69,1.53a5.24,5.24,0,0,0-7.41,7.41L80.6,27.26a5.78,5.78,0,0,0,7.81,0L106.73,8.94A5.23,5.23,0,0,0,106.73,1.53Z"/><path class="cls-1" d="M106.73,25.7a5.22,5.22,0,0,0-7.4,0L84.51,40.52,69.69,25.7a5.24,5.24,0,1,0-7.41,7.4L80.6,51.42a5.78,5.78,0,0,0,7.81,0L106.73,33.1A5.22,5.22,0,0,0,106.73,25.7Z"/><path class="cls-1" d="M62.28,170.62a5.25,5.25,0,0,0,7.41,0L84.51,155.8l14.82,14.82a5.24,5.24,0,1,0,7.4-7.41L88.41,144.89a5.78,5.78,0,0,0-7.81,0L62.28,163.21A5.25,5.25,0,0,0,62.28,170.62Z"/><path class="cls-1" d="M62.28,146.46a5.25,5.25,0,0,0,7.41,0l14.82-14.83,14.82,14.83a5.24,5.24,0,0,0,7.4-7.41L88.41,120.73a5.78,5.78,0,0,0-7.81,0L62.28,139.05A5.25,5.25,0,0,0,62.28,146.46Z"/><path class="cls-1" d="M146.88,116,27.37,47a5.23,5.23,0,1,0-5.23,9.07l119.51,69a5.23,5.23,0,0,0,5.23-9.07Z"/><path class="cls-1" d="M22.4,24.56A5.24,5.24,0,0,0,18.7,31l5.43,20.25L3.88,56.64A5.23,5.23,0,1,0,6.59,66.75l25-6.7a5.76,5.76,0,0,0,3.9-6.77l-6.7-25A5.24,5.24,0,0,0,22.4,24.56Z"/><path class="cls-1" d="M43.33,36.64a5.24,5.24,0,0,0-3.7,6.41L45.05,63.3,24.81,68.72a5.24,5.24,0,0,0,2.71,10.12l25-6.71a5.78,5.78,0,0,0,3.91-6.76l-6.71-25A5.24,5.24,0,0,0,43.33,36.64Z"/><path class="cls-1" d="M146.61,147.59a5.23,5.23,0,0,0,3.7-6.41l-5.42-20.24,20.24-5.43a5.23,5.23,0,1,0-2.71-10.11l-25,6.7a5.78,5.78,0,0,0-3.91,6.77l6.71,25A5.23,5.23,0,0,0,146.61,147.59Z"/><path class="cls-1" d="M125.69,135.51a5.24,5.24,0,0,0,3.7-6.41L124,108.86l20.25-5.43a5.23,5.23,0,1,0-2.71-10.11l-25,6.7a5.76,5.76,0,0,0-3.9,6.77l6.7,25A5.24,5.24,0,0,0,125.69,135.51Z"/><path class="cls-1" d="M141.65,47,22.14,116a5.23,5.23,0,0,0,5.23,9.07l119.51-69A5.23,5.23,0,0,0,141.65,47Z"/><path class="cls-1" d="M.18,109.1a5.24,5.24,0,0,0,3.7,6.41l20.25,5.43L18.7,141.18a5.24,5.24,0,0,0,10.12,2.71l6.7-25a5.2,5.2,0,0,0-.63-4.15,5.28,5.28,0,0,0-3.27-2.62l-25-6.7A5.24,5.24,0,0,0,.18,109.1Z"/><path class="cls-1" d="M21.11,97a5.23,5.23,0,0,0,3.7,6.41l20.24,5.42L39.63,129.1a5.23,5.23,0,1,0,10.11,2.71l6.71-25A5.78,5.78,0,0,0,52.54,100l-25-6.7A5.23,5.23,0,0,0,21.11,97Z"/><path class="cls-1" d="M168.84,63.05a5.24,5.24,0,0,0-3.71-6.41l-20.24-5.42L150.31,31a5.23,5.23,0,1,0-10.11-2.71l-6.71,25a5.78,5.78,0,0,0,3.91,6.77l25,6.7A5.24,5.24,0,0,0,168.84,63.05Z"/><path class="cls-1" d="M147.91,75.13a5.24,5.24,0,0,0-3.7-6.41L124,63.3l5.43-20.25a5.24,5.24,0,0,0-10.12-2.71l-6.7,25a5.76,5.76,0,0,0,3.9,6.76l25,6.71A5.24,5.24,0,0,0,147.91,75.13Z"/></g></g></svg>