<svg xmlns="http://www.w3.org/2000/svg" viewBox="0 0 131.4 148.47"><defs><style>.cls-1{fill:#70a8e2;}</style></defs><title>snowflake1transparent</title><g id="Layer_2" data-name="Layer 2"><g id="OBJECT"><path class="cls-1" d="M70.93,143.23V5.24a5.24,5.24,0,1,0-10.47,0v138a5.24,5.24,0,1,0,10.47,0Z"/><path class="cls-1" d="M87.92,24.68a5.24,5.24,0,0,0-7.4,0L65.7,39.5,50.88,24.68a5.24,5.24,0,1,0-7.41,7.41L61.79,50.41a5.78,5.78,0,0,0,7.81,0L87.92,32.09A5.23,5.23,0,0,0,87.92,24.68Z"/><path class="cls-1" d="M82.23,8.12a5.25,5.25,0,0,0-7.41,0L65.7,17.25,56.57,8.12a5.24,5.24,0,0,0-7.4,7.41L61.79,28.15a5.75,5.75,0,0,0,7.81,0L82.23,15.53A5.25,5.25,0,0,0,82.23,8.12Z"/><path class="cls-1" d="M87.92,123.78a5.22,5.22,0,0,1-7.4,0L65.7,109,50.88,123.78a5.24,5.24,0,1,1-7.41-7.4L61.79,98.06a5.78,5.78,0,0,1,7.81,0l18.32,18.32A5.22,5.22,0,0,1,87.92,123.78Z"/><path class="cls-1" d="M82.23,140.34a5.23,5.23,0,0,1-7.41,0l-9.12-9.12-9.13,9.12a5.23,5.23,0,0,1-7.4-7.4l12.62-12.62a5.75,5.75,0,0,1,7.81,0l12.63,12.62A5.24,5.24,0,0,1,82.23,140.34Z"/><path class="cls-1" d="M128.07,104.2,8.56,35.2a5.23,5.23,0,1,0-5.23,9.07l119.51,69a5.23,5.23,0,0,0,5.23-9.07Z"/><path class="cls-1" d="M33.9,30.21a5.24,5.24,0,0,0-3.7,6.41l5.42,20.25L15.38,62.29a5.24,5.24,0,1,0,2.71,10.12l25-6.71a5.16,5.16,0,0,0,3.27-2.62A5.22,5.22,0,0,0,47,58.94l-6.71-25A5.24,5.24,0,0,0,33.9,30.21Z"/><path class="cls-1" d="M16.71,26.86A5.24,5.24,0,0,0,13,33.28l3.34,12.46L3.88,49.08A5.24,5.24,0,0,0,6.59,59.2l17.25-4.63A5.21,5.21,0,0,0,27.11,52a5.18,5.18,0,0,0,.63-4.14L23.12,30.57A5.24,5.24,0,0,0,16.71,26.86Z"/><path class="cls-1" d="M119.72,79.76a5.23,5.23,0,0,1-3.7,6.41L95.77,91.6l5.43,20.24a5.23,5.23,0,1,1-10.11,2.71l-6.71-25a5.75,5.75,0,0,1,3.91-6.76l25-6.71A5.24,5.24,0,0,1,119.72,79.76Z"/><path class="cls-1" d="M131.22,93a5.25,5.25,0,0,1-3.71,6.42l-12.46,3.34,3.34,12.46a5.24,5.24,0,0,1-10.12,2.71l-4.62-17.24a5.78,5.78,0,0,1,3.91-6.77l17.24-4.62A5.24,5.24,0,0,1,131.22,93Z"/><path class="cls-1" d="M122.84,35.2,3.33,104.2a5.23,5.23,0,0,0,5.23,9.07l119.51-69a5.23,5.23,0,0,0-5.23-9.07Z"/><path class="cls-1" d="M11.67,79.76a5.24,5.24,0,0,0,3.71,6.41L35.62,91.6,30.2,111.84a5.23,5.23,0,1,0,10.11,2.71l6.71-25a5.22,5.22,0,0,0-.64-4.14,5.16,5.16,0,0,0-3.27-2.62l-25-6.71A5.24,5.24,0,0,0,11.67,79.76Z"/><path class="cls-1" d="M.18,93a5.24,5.24,0,0,0,3.7,6.42l12.47,3.34L13,115.19a5.23,5.23,0,0,0,10.11,2.71l4.62-17.24a5.2,5.2,0,0,0-.63-4.15,5.28,5.28,0,0,0-3.27-2.62L6.59,89.27A5.24,5.24,0,0,0,.18,93Z"/><path class="cls-1" d="M97.5,30.21a5.24,5.24,0,0,1,3.7,6.41L95.77,56.87,116,62.29a5.24,5.24,0,0,1-2.71,10.12l-25-6.71a5.75,5.75,0,0,1-3.91-6.76l6.71-25A5.23,5.23,0,0,1,97.5,30.21Z"/><path class="cls-1" d="M114.69,26.86a5.24,5.24,0,0,1,3.7,6.42l-3.34,12.46,12.46,3.34A5.24,5.24,0,1,1,124.8,59.2l-17.24-4.63A5.16,5.16,0,0,1,104.29,52a5.22,5.22,0,0,1-.64-4.14l4.62-17.24A5.25,5.25,0,0,1,114.69,26.86Z"/></g></g></svg>